<svg class="svg-icon" style="width: 1em;height: 1em;vertical-align: middle;fill: currentColor;overflow: hidden;" viewBox="0 0 1024 1024" version="1.1" xmlns="http://www.w3.org/2000/svg"><path d="M908.387097 192.688172a27.526882 27.526882 0 0 1 27.526881 27.526882v589.075269a27.526882 27.526882 0 0 1-27.526881 27.526881H115.612903a27.526882 27.526882 0 0 1-27.526881-27.526881V220.215054a27.526882 27.526882 0 0 1 27.526881-27.526882h792.774194z m-38.537635 66.064516H154.150538v512h715.698924V258.752688z m-209.204301 44.043011c57.767914 0 104.602151 46.834237 104.602151 104.60215 0 33.417634-15.668301 63.174194-40.062624 82.327398C802.95914 516.481376 858.83871 590.297462 858.83871 677.16129a33.032258 33.032258 0 0 1-66.042495 1.23871L792.774194 677.16129c0-72.973763-59.155269-132.129032-132.129033-132.129032s-132.129032 59.155269-132.129032 132.129032a33.032258 33.032258 0 0 1-66.064516 0c0-86.863828 55.87957-160.674409 133.654021-187.447053C571.716817 470.572043 556.043011 440.815484 556.043011 407.397849c0-57.767914 46.834237-104.602151 104.60215-104.60215z m-264.258064 302.795699a27.526882 27.526882 0 0 1 27.526881 27.526882v11.010752a27.526882 27.526882 0 0 1-27.526881 27.526882H220.215054a27.526882 27.526882 0 0 1-27.526882-27.526882v-11.010752a27.526882 27.526882 0 0 1 27.526882-27.526882h176.172043z m0-121.11828a27.526882 27.526882 0 0 1 27.526881 27.526882v11.010753a27.526882 27.526882 0 0 1-27.526881 27.526881H220.215054a27.526882 27.526882 0 0 1-27.526882-27.526881v-11.010753a27.526882 27.526882 0 0 1 27.526882-27.526882h176.172043z m264.258064-115.612903a38.537634 38.537634 0 1 0 0 77.075269 38.537634 38.537634 0 0 0 0-77.075269z m-264.258064-5.505376a27.526882 27.526882 0 0 1 27.526881 27.526881v11.010753a27.526882 27.526882 0 0 1-27.526881 27.526882H220.215054a27.526882 27.526882 0 0 1-27.526882-27.526882v-11.010753a27.526882 27.526882 0 0 1 27.526882-27.526881h176.172043z" fill="#3A3A3A" /></svg>