<?xml version="1.0" encoding="utf-8"?>
<!-- Svg Vector Icons : http://www.onlinewebfonts.com/icon -->
<!DOCTYPE svg PUBLIC "-//W3C//DTD SVG 1.1//EN" "http://www.w3.org/Graphics/SVG/1.1/DTD/svg11.dtd">
<svg version="1.1" xmlns="http://www.w3.org/2000/svg" xmlns:xlink="http://www.w3.org/1999/xlink" x="0px" y="0px" viewBox="0 0 256 256" enable-background="new 0 0 256 256" xml:space="preserve">
<metadata> Svg Vector Icons : http://www.onlinewebfonts.com/icon </metadata>
<g><g><g><path fill="#000000" d="M87,10.5c-4.8,0.8-10.9,4-14.5,7.6c-3.7,3.7-6.8,9.8-7.6,15.1c-0.3,2.1-0.6,14.4-0.6,28.9v25.2l2.2-0.4c1.1-0.2,5.2-0.7,9-1.2l6.9-1L82.6,59c0.2-25.5,0.2-25.6,1.4-27.4c2.6-3.7,2.2-3.6,33.6-3.6H146l0.2,10.3c0.2,11.6,0.6,13,4.4,15.4c1.8,1.1,2.9,1.3,12.4,1.4l10.3,0.2V70v14.7l7,1c3.8,0.5,7.9,1.1,9.1,1.3l2.1,0.4V71.7c0-8.6-0.2-17-0.6-18.7c-2.7-14.3-26.1-38.3-41.2-42.3c-2.8-0.7-7.8-0.9-31.5-0.8C102.8,10,88.7,10.2,87,10.5z"/><path fill="#000000" d="M105.5,92.2C51.9,94,23.5,103,13.8,121c-3.8,7.2-3.8,7.2-3.8,43.1c0,36.2,0,36,4.1,42.2c5.4,8.1,15,11.8,32.4,12.4l8.6,0.3l0.2-15.6c0.2-15.1,0.2-15.6,1.4-17.3c2.8-3.9-1.9-3.6,71.2-3.6c73.1,0,68.4-0.2,71.2,3.6c1.2,1.7,1.3,2.3,1.4,17.3l0.2,15.5h5.2c25-0.1,37.4-7.5,39.7-23.6c0.4-3,0.5-14.9,0.4-34.4c-0.2-26-0.3-30.2-1.2-33.1c-6.2-21.3-30.8-31.8-81.6-34.9C149.9,92,120.9,91.7,105.5,92.2z M215.2,129.6c3.8,2.7,4.7,9.2,2,13c-2.7,3.7-9.2,4.7-13,2c-5.2-3.7-4.5-12.8,1.1-15.7C207.9,127.6,212.9,128,215.2,129.6z"/><path fill="#000000" d="M64.3,206c0,15.9,0.5,19.7,3.2,25.2c3.6,7.3,11.7,13.1,20.3,14.4c2.7,0.4,17.1,0.6,42.6,0.5c38.6-0.2,38.6-0.2,42.2-1.5c8.6-3.1,14.2-8.7,17.2-17.2c1.2-3.4,1.3-4.8,1.5-19.7l0.2-16h-9.1h-9.1l-0.2,15.5c-0.2,17-0.1,16.7-3.8,19.5c-1.4,1-2.8,1.1-40.9,1.3c-43.6,0.2-41.9,0.3-44.6-3.5c-1.2-1.7-1.3-2.3-1.4-17.3l-0.2-15.5h-9h-9.1L64.3,206L64.3,206z"/></g></g></g>
</svg>